<svg xmlns="http://www.w3.org/2000/svg" xmlns:xlink="http://www.w3.org/1999/xlink" id="_0380_fitness_2" x="0px" y="0px" viewBox="0 0 500 500" style="width: 151px;" xml:space="preserve" data-imageid="fitness-2-40" class="illustrations_image"><style type="text/css">	.st0_fitness-2-40{fill:#FFC9B0;}	.st1_fitness-2-40{fill:#093F68;}	.st2_fitness-2-40{fill:#725858;}	.st3_fitness-2-40{fill:#68E1FD;}</style><g id="character_fitness-2-40">	<path class="st0_fitness-2-40" d="M420.7,156.9c0,0-7.3-22.3-16.6-31.1s-34.7-11.9-41.5-6.2s0,13,0,13s0.5,15.1,6.7,24.9s28.5,8.8,28.5,8.8v67.1&#10;&#9;&#9;c-17.6-16.9-45.1,6-45.1,6c-15.6-17.1-37.6-2.7-37.6-2.7H184.8c0,0-22-14.4-37.6,2.7c0,0-27.5-22.9-45.1-6v-67.2&#10;&#9;&#9;c0,0,22.3,1,28.5-8.8s6.7-24.9,6.7-24.9s6.7-7.3,0-13s-32.2-2.6-41.5,6.2s-16.6,31.1-16.6,31.1s-32.7,73.6-28,109.4&#10;&#9;&#9;c0,0,39.8,43,91.7,33.2l18.5,31.7l25.4,43.5v35.8l0.1,0.1h126l0.1-0.1v-35.8l25.4-43.5l18.5-31.7c51.9,9.9,91.7-33.2,91.7-33.2&#10;&#9;&#9;C453.4,230.6,420.7,156.9,420.7,156.9z"></path>	<path class="st1_fitness-2-40" d="M313,412.4H187c-0.3,0-0.5-0.1-0.8-0.2c-0.7-0.3-1.2-1-1.2-1.7v-35.3l-43-73.7c-51.7,9-91.7-33.5-92.1-34&#10;&#9;&#9;c-0.3-0.3-0.4-0.6-0.5-1C44.8,231,75.7,160.4,77.5,156.3c0.6-1.8,7.7-22.9,17.1-31.8c9.5-9,36.2-12.8,44-6.3&#10;&#9;&#9;c2.1,1.6,3.4,4.1,3.6,6.8c0.2,3.8-2,7.1-3,8.3c-0.2,3.1-1.2,16.1-7,25.2c-5.6,8.9-22.2,9.7-28.1,9.7H104v61.4&#10;&#9;&#9;c16.1-11.1,37.5,3.3,43.1,7.4c15-14.8,34.9-4.1,38.3-2.1h129.3c3.4-2,23.3-12.7,38.3,2.1c5.6-4.1,27-18.5,43.1-7.4v-61.4&#10;&#9;&#9;c-5.8,0-22.6-0.7-28.2-9.7s-6.8-22.1-7-25.2c-1-1.3-3.2-4.5-3-8.3c0.2-2.7,1.5-5.1,3.6-6.8c7.7-6.6,34.4-2.7,43.9,6.3&#10;&#9;&#9;c9.4,8.8,16.5,30,17,31.8c1.8,4.1,32.8,74.7,28.1,110.3c-0.1,0.4-0.2,0.7-0.5,1c-0.4,0.4-40.4,43-92.1,34l-43,73.7v35.3&#10;&#9;&#9;c0,0.7-0.4,1.4-1,1.7C313.6,412.3,313.3,412.4,313,412.4z M188.8,408.8h122.4v-34c0-0.3,0.1-0.6,0.2-0.9l43.9-75.2&#10;&#9;&#9;c0.4-0.7,1.2-1,1.9-0.9c47.6,9,85.4-27.8,89.6-32.2c4.1-35.1-27.6-107.1-27.9-107.8c0-0.1,0-0.1-0.1-0.2&#10;&#9;&#9;c-0.1-0.2-7.2-21.9-16.1-30.3s-33.1-11.2-39-6.2c-1.3,1-2.2,2.5-2.3,4.2c-0.2,3.2,2.5,6.1,2.5,6.2c0.3,0.3,0.5,0.7,0.5,1.2&#10;&#9;&#9;c0,0.1,0.6,14.7,6.5,24c5.6,8.8,26.6,8,26.9,7.9c0.5,0,1,0.2,1.4,0.5c0.4,0.3,0.6,0.8,0.6,1.3v67.1c0,1-0.8,1.8-1.9,1.8&#10;&#9;&#9;c-0.5,0-0.9-0.2-1.3-0.5c-16.2-15.6-42.4,5.9-42.6,6.1c-0.8,0.6-1.9,0.6-2.5-0.2c-14.3-15.7-34.4-3-35.2-2.4&#10;&#9;&#9;c-0.3,0.2-0.6,0.3-1,0.3H184.8c-0.4,0-0.7-0.1-1-0.3c-0.9-0.6-20.9-13.3-35.2,2.4c-0.7,0.7-1.8,0.8-2.5,0.2&#10;&#9;&#9;c-0.3-0.2-26.4-21.6-42.7-6.1c-0.7,0.7-1.9,0.7-2.6-0.1c-0.3-0.3-0.5-0.8-0.5-1.3v-67.1c0-0.5,0.2-1,0.6-1.3&#10;&#9;&#9;c0.4-0.4,0.8-0.5,1.3-0.5c0.2,0,21.3,0.9,26.9-7.9c5.9-9.3,6.4-23.8,6.5-24c0-0.4,0.2-0.9,0.5-1.2c0,0,2.7-3,2.5-6.2&#10;&#9;&#9;c-0.2-1.7-1-3.2-2.3-4.2c-5.9-5-30.2-2.2-39,6.2s-16,30.1-16.1,30.3c0,0.1,0,0.1-0.1,0.2c-0.3,0.7-32,72.8-27.9,107.8&#10;&#9;&#9;c4.3,4.4,42,41.2,89.6,32.2c0.8-0.1,1.5,0.2,1.9,0.9l43.9,75.2c0.2,0.3,0.3,0.6,0.2,0.9L188.8,408.8z M448.8,266.4L448.8,266.4z"></path>	<polyline class="st0_fitness-2-40" points="231.2,246.2 231.3,225.9 269.2,226.4 269.1,246.7 &#9;"></polyline>	<path class="st1_fitness-2-40" d="M269.1,248.6L269.1,248.6c-1,0-1.8-0.8-1.8-1.9l0.1-18.5l-34.2-0.4l-0.1,18.4c0,1-0.8,1.8-1.8,1.8l0,0&#10;&#9;&#9;c-1,0-1.8-0.8-1.8-1.8c0,0,0,0,0,0l0.1-20.3c0-0.5,0.2-1,0.6-1.3c0.4-0.3,0.8-0.5,1.3-0.5l37.9,0.5c1,0,1.8,0.8,1.8,1.9l-0.1,20.3&#10;&#9;&#9;C270.9,247.7,270.1,248.6,269.1,248.6C269.1,248.6,269.1,248.6,269.1,248.6z"></path>	<path class="st2_fitness-2-40" d="M193.2,188.1c1.7,0-2.3-7.1-2.5-7.6c-3.9-9.2-4.3-20.3-3.4-30.1c0.9-10.1,4.3-23.1,15.8-25.2&#10;&#9;&#9;c-3.2,0.6-6.6-0.9-9-3.2c-2.3-2.4-4.2-5.1-5.6-8.1c5.3,1.5,11.1,0.2,15.8-2.6c4.3-2.5,6.3-6.1,9.6-9.5c2.9-3.1,7.1-5.5,10.9-7.4&#10;&#9;&#9;c15.5-7.7,34.1-5,50.9-0.8c7.2,1.8,14.5,3.9,20.3,8.6s9.5,12.6,7.2,19.6c8.6,1.1,13.1,2.5,13.8,12.1c1.2,14.9-8.2,54.2-8.2,54.2&#10;&#9;&#9;l-10.1-1.9L193.2,188.1z"></path>	<path class="st1_fitness-2-40" d="M193.2,189.9c-1,0-1.8-0.8-1.8-1.8c0-0.4,0.1-0.7,0.3-1.1c-0.6-1.8-1.4-3.5-2.3-5.1c-0.2-0.4-0.3-0.6-0.4-0.7&#10;&#9;&#9;c-3.5-8.2-4.7-18.7-3.6-31c1.1-12.1,4.9-20.3,11-24.4c-1.3-0.7-2.5-1.5-3.6-2.5c-2.6-2.5-4.4-5.7-6-8.6c-0.3-0.6-0.3-1.4,0.2-2&#10;&#9;&#9;c0.5-0.6,1.3-0.8,2-0.6c4.4,1.3,9.6,0.4,14.3-2.4c2.8-1.6,4.5-3.7,6.5-6.1c0.8-1,1.7-2,2.7-3.1c3.3-3.5,8.1-6.1,11.4-7.8&#10;&#9;&#9;c16.4-8.1,35.6-5,52.1-1c7.3,1.8,14.9,4,21,8.9c5.3,4.3,9.7,11.8,8.3,19.5c7.4,1.1,12.6,3.3,13.4,13.5c1.2,15-7.9,53.2-8.3,54.8&#10;&#9;&#9;c-0.2,1-1.2,1.6-2.1,1.4l-9.9-1.9L193.2,189.9L193.2,189.9z M193.2,186.2L193.2,186.2z M203.1,123.2c1,0,1.8,0.9,1.8,1.9&#10;&#9;&#9;c0,0.9-0.6,1.6-1.5,1.8c-10.2,1.9-13.4,13.9-14.3,23.6c-1.1,11.7,0,21.6,3.3,29.3l0.2,0.5c1.1,1.9,2,3.9,2.6,6l103.3-1.9&#10;&#9;&#9;c0.1,0,0.2,0,0.4,0l8.4,1.6c1.8-7.7,8.8-39.3,7.8-51.9c-0.6-8.2-3.9-9.4-12.2-10.4c-0.5-0.1-1-0.4-1.3-0.8c-0.3-0.5-0.4-1-0.2-1.6&#10;&#9;&#9;c2.1-6.7-2-13.8-6.6-17.6c-5.5-4.5-12.7-6.5-19.6-8.2c-15.9-3.9-34.3-6.9-49.6,0.7c-3.1,1.5-7.5,3.9-10.3,7c-0.9,1-1.7,1.9-2.5,2.9&#10;&#9;&#9;c-2,2.7-4.6,5.1-7.4,6.9c-4,2.4-8.6,3.6-13.2,3.4c0.9,1.6,2.1,3,3.4,4.3c2.2,2.1,5,3.1,7.4,2.7l0,0&#10;&#9;&#9;C202.9,123.3,203,123.2,203.1,123.2L203.1,123.2z"></path>			<ellipse transform="matrix(1.256606e-02 -0.9999 0.9999 1.256606e-02 13.2688 389.8792)" class="st0_fitness-2-40" cx="204" cy="188.2" rx="13.7" ry="15.9"></ellipse>	<path class="st1_fitness-2-40" d="M204.1,203.7h-0.3c-4.5,0-8.9-1.6-12.4-4.6c-3.3-2.8-5.2-6.8-5.1-11.1c0.1-8.5,8-15.3,17.6-15.3h0.3&#10;&#9;&#9;c4.5,0,8.9,1.6,12.4,4.6c6,5,6.9,14,1.9,20c-0.6,0.8-1.4,1.5-2.2,2.1C212.9,202.3,208.6,203.8,204.1,203.7z M204,176.4&#10;&#9;&#9;c-7.6,0-13.9,5.2-14,11.7c0,3.2,1.4,6.3,3.9,8.3c2.8,2.4,6.3,3.7,10,3.7c3.7,0.1,7.3-1.1,10.1-3.4c4.6-3.5,5.5-10.2,1.9-14.8&#10;&#9;&#9;c-0.5-0.7-1.1-1.3-1.7-1.8c-2.8-2.4-6.3-3.7-10-3.7H204z"></path>			<ellipse transform="matrix(1.256606e-02 -0.9999 0.9999 1.256606e-02 103.4568 483.5317)" class="st0_fitness-2-40" cx="296.6" cy="189.4" rx="13.7" ry="15.9"></ellipse>	<path class="st1_fitness-2-40" d="M296.6,204.9h-0.3c-4.5,0-8.9-1.6-12.4-4.6c-3.3-2.8-5.2-6.8-5.1-11.1c0.1-8.5,8-15.3,17.6-15.3h0.3&#10;&#9;&#9;c9.8,0.1,17.6,7.2,17.5,15.7l0,0c-0.1,4.3-2.1,8.3-5.4,11C305.4,203.4,301.1,205,296.6,204.9z M296.5,177.6&#10;&#9;&#9;c-7.6,0-13.9,5.2-14,11.7c0,3.2,1.4,6.3,3.9,8.3c2.8,2.4,6.3,3.7,10,3.7c3.7,0.1,7.2-1.1,10.1-3.4c2.5-2,4-5,4.1-8.2l0,0&#10;&#9;&#9;c0.1-6.5-6.1-11.9-13.9-12L296.5,177.6z"></path>	<path class="st0_fitness-2-40" d="M250.2,233.4c-38.7,0-47.6-22-47.3-48.5c0.1-7.4-1.4-31,0.9-34.7c2.7-4.3,7.8-6.9,12.3-8.6s9.2-3.2,13.9-2.4&#10;&#9;&#9;c0.4,0,0.8,0.2,1.1,0.5c0.4,0.5,0,1.3-0.3,1.8c-2.6,4.2-5.9,8-9.8,11.2c7.4,0.8,15-0.9,21.9-3.9s13.1-7.2,19.1-11.7&#10;&#9;&#9;c0,9.1-4.7,17.5-12.4,22.3c11.8,1.1,23.4-3.1,31.8-11.5c2.1-2.1,4-4.5,6.8-5.5c13.3-4.9,10.8,16.1,10.7,22.7l-0.3,21&#10;&#9;&#9;C298.3,212.6,288.9,233.4,250.2,233.4z"></path>	<path class="st1_fitness-2-40" d="M250.2,235.2c-16.9,0-29.1-4-37.3-12.3s-12-20.7-11.8-38c0-1.9-0.1-4.9-0.2-8.4c-0.4-13.7-0.5-24.3,1.3-27.3&#10;&#9;&#9;c3.1-4.9,9-7.7,13.2-9.4c4.4-1.8,9.7-3.4,14.9-2.5c0.9,0.1,1.7,0.6,2.3,1.3c0.5,0.7,0.9,2-0.3,3.8c-1.9,3.1-4.2,6-6.8,8.6&#10;&#9;&#9;c5.7-0.2,11.4-1.5,16.6-3.9c7.1-3.1,13.5-7.6,18.7-11.5c0.6-0.4,1.3-0.5,1.9-0.2c0.6,0.3,1,0.9,1,1.6c0,7.8-3.3,15.3-9,20.6&#10;&#9;&#9;c9.5-0.4,18.5-4.4,25.2-11.1l1-1c1.9-1.9,3.8-3.9,6.5-4.9c3.5-1.3,6.5-1.1,8.7,0.6c5.3,3.9,4.8,14.8,4.6,21.3c0,1-0.1,1.9-0.1,2.6&#10;&#9;&#9;l-0.3,21C300.2,207.2,294.7,235.2,250.2,235.2z M227.2,140.8c-3.6,0-7.2,1.2-10.4,2.5c-3.7,1.5-8.9,3.9-11.4,7.9&#10;&#9;&#9;c-1.4,2.2-1,17.8-0.8,25.2c0.1,3.5,0.2,6.6,0.2,8.5c-0.2,16.3,3.3,27.9,10.7,35.4s18.8,11.2,34.7,11.2c40.8,0,46.4-24.3,46.6-45.4&#10;&#9;&#9;l0.3-21c0-0.7,0-1.7,0.1-2.7c0.2-5.4,0.7-15.5-3.1-18.2c-1.2-0.9-3-0.9-5.3-0.1c-1.9,0.7-3.5,2.3-5.1,4c-0.3,0.4-0.7,0.7-1,1.1&#10;&#9;&#9;c-8.7,8.8-21,13.2-33.3,12c-0.8-0.1-1.4-0.7-1.6-1.4c-0.2-0.8,0.2-1.6,0.8-2c6-3.7,10.1-9.8,11.2-16.8c-5.1,3.8-10.5,7-16.2,9.6&#10;&#9;&#9;c-7.8,3.4-15.7,4.8-22.8,4c-1-0.1-1.8-1-1.7-2c0-0.5,0.3-0.9,0.7-1.2c3.6-3,6.7-6.5,9.2-10.4C228.4,140.8,227.8,140.8,227.2,140.8z&#10;&#9;&#9;"></path>	<circle class="st1_fitness-2-40" cx="233.1" cy="178.3" r="4.4"></circle>	<circle class="st1_fitness-2-40" cx="274.4" cy="178.9" r="4.4"></circle>	<path class="st1_fitness-2-40" d="M254.8,198.8c-1.6,0-3.1-0.1-4.7-0.4c-1-0.2-1.7-1.2-1.5-2.1s1.2-1.7,2.1-1.5c2,0.4,4,0.4,6.1,0.2&#10;&#9;&#9;c0-1.6-1.6-5.9-3.6-9.9c-0.5-0.9-0.1-2,0.8-2.5s2-0.1,2.5,0.8c1.9,3.8,4.9,10.6,3.6,13.5c-0.4,0.8-1.1,1.4-1.9,1.6&#10;&#9;&#9;C257.1,198.7,255.9,198.8,254.8,198.8z"></path>	<path class="st1_fitness-2-40" d="M243.8,167.3h-0.5l-21-2.6c-2-0.3-3.4-2.1-3.2-4.1c0.3-2,2.1-3.4,4.1-3.2l0,0l21,2.6c2,0.2,3.5,2,3.3,4&#10;&#9;&#9;C247.4,165.9,245.7,167.4,243.8,167.3L243.8,167.3z"></path>	<path class="st1_fitness-2-40" d="M268.1,167.4c-2-0.1-3.6-1.8-3.5-3.9c0.1-1.9,1.6-3.4,3.5-3.5l21.1-0.1l0,0c2,0.1,3.6,1.8,3.5,3.9&#10;&#9;&#9;c-0.1,1.9-1.6,3.4-3.5,3.5L268.1,167.4z"></path>	<path class="st1_fitness-2-40" d="M260.8,215.6c-5.1,0-15.5-1.5-26.9-11.9c-0.8-0.7-0.8-1.8-0.1-2.6c0.7-0.8,1.8-0.8,2.6-0.1&#10;&#9;&#9;c14.2,13,26.8,10.8,26.9,10.8c1-0.2,2,0.4,2.2,1.4c0.2,1-0.4,2-1.4,2.2C262.9,215.5,261.9,215.6,260.8,215.6z"></path>	<path class="st1_fitness-2-40" d="M285.9,145.5c-1,0-1.8-0.8-1.8-1.8c0-0.8,0.5-1.5,1.2-1.7c0.1,0,6.5-2.4,11.2-10.3c0.5-0.9,1.6-1.2,2.5-0.6&#10;&#9;&#9;c0.9,0.5,1.2,1.6,0.6,2.5l0,0c-5.4,9.1-12.9,11.8-13.2,11.9C286.3,145.5,286.1,145.5,285.9,145.5z"></path>	<path class="st3_fitness-2-40 targetColor" d="M188.8,408.8l124.2,1.8l0.1-0.1v-35.8l25.4-43.5c-7.4-5.7-25.6-21.2-28.5-38.4c-3.6-21.8,1.5-55.9,1.5-55.9&#10;&#9;&#9;l-0.6-0.2h-12.5c-3.3,25.6-13.7,46.5-29.8,58.2c-4.6,3.3-9.1,5.4-18.8,5.4s-14.2-2.1-18.8-5.4c-16.1-11.7-26.5-32.7-29.8-58.2H189&#10;&#9;&#9;l-0.6,0.2c0,0,5.2,34.1,1.6,55.9c-2.9,17.2-21.1,32.7-28.5,38.4l25.4,43.5L188.8,408.8z" style="fill: rgb(104, 225, 253);"></path>	<path class="st1_fitness-2-40" d="M313,412.4H187c-0.3,0-0.5-0.1-0.8-0.2c-0.7-0.3-1.2-1-1.2-1.7v-35.3l-25.2-43.1c-0.5-0.8-0.3-1.8,0.5-2.4&#10;&#9;&#9;c7.4-5.7,25.1-20.7,27.8-37.3c3.5-21.2-1.5-55-1.6-55.4c-0.1-0.9,0.3-1.7,1.1-2l0.6-0.2c0.2-0.1,0.4-0.1,0.7-0.1h12.4&#10;&#9;&#9;c0.9,0,1.7,0.7,1.8,1.6c3.3,25.5,13.6,45.8,29,57c4.5,3.3,8.6,5,17.7,5s13.2-1.8,17.7-5c15.4-11.2,25.8-31.5,29-57&#10;&#9;&#9;c0.1-0.9,0.9-1.6,1.8-1.6H311c0.2,0,0.5,0,0.7,0.1l0.5,0.2c0.8,0.3,1.3,1.2,1.1,2c-0.1,0.3-5.1,34.1-1.6,55.4&#10;&#9;&#9;c2.8,16.5,20.4,31.6,27.8,37.3c0.7,0.6,0.9,1.6,0.5,2.4l-25.2,43.1v35.3c0,0.7-0.4,1.4-1,1.7C313.6,412.3,313.3,412.4,313,412.4z&#10;&#9;&#9; M188.8,408.8h122.4v-34c0-0.3,0.1-0.6,0.2-0.9l24.6-42.1c-8.4-6.6-25.1-21.7-27.9-38.6c-3.2-19.1,0.2-47.1,1.3-54.6h-9.3&#10;&#9;&#9;c-3.6,25.8-14.4,46.3-30.3,57.9c-5,3.6-9.9,5.7-19.9,5.7s-14.9-2.1-19.9-5.7c-15.9-11.6-26.7-32.1-30.3-57.9h-9.3&#10;&#9;&#9;c1,7.6,4.5,35.5,1.3,54.6c-2.8,16.9-19.5,32-27.9,38.6l24.6,42.1c0.2,0.3,0.3,0.6,0.2,0.9L188.8,408.8z"></path>	<path class="st1_fitness-2-40" d="M144.3,299.1c-9.1,0-15.2-2.8-19.2-5.7c-3.8-2.7-6.8-6.4-8.6-10.7c-0.3-1,0.2-2,1.1-2.4c1-0.3,2,0.2,2.4,1.1&#10;&#9;&#9;l0,0c0.3,0.8,7.7,20.1,37.9,12c1-0.3,2,0.3,2.3,1.3s-0.3,2-1.3,2.3C154.2,298.4,149.3,299.1,144.3,299.1z"></path>	<path class="st1_fitness-2-40" d="M347.4,299.1c-4.9-0.1-9.8-0.8-14.6-2.1c-1-0.3-1.6-1.3-1.3-2.3s1.3-1.6,2.3-1.3c30.2,8.1,37.6-11.1,37.9-12&#10;&#9;&#9;c0.3-1,1.4-1.5,2.4-1.1c1,0.3,1.5,1.4,1.1,2.4C375.1,282.9,369,299.1,347.4,299.1z"></path></g></svg>