<svg xmlns="http://www.w3.org/2000/svg" xmlns:xlink="http://www.w3.org/1999/xlink" id="_0380_fitness_2" viewBox="0 0 500 500" data-imageid="fitness-2-54" class="illustrations_image" style="width: 151px;"><defs><style>.cls-1_fitness-2-54{fill:url(#linear-gradient);}.cls-1_fitness-2-54,.cls-2_fitness-2-54,.cls-3_fitness-2-54,.cls-4_fitness-2-54,.cls-5_fitness-2-54,.cls-6_fitness-2-54,.cls-7_fitness-2-54{stroke-width:0px;}.cls-2_fitness-2-54{isolation:isolate;opacity:.18;}.cls-2_fitness-2-54,.cls-7_fitness-2-54{fill:#68e1fd;}.cls-3_fitness-2-54{fill:url(#linear-gradient-2-fitness-2-54);}.cls-4_fitness-2-54{fill:#231f20;}.cls-5_fitness-2-54{fill:#e09d80;}.cls-6_fitness-2-54{fill:#ffaa71;}</style><linearGradient id="linear-gradient-fitness-2-54" x1="754.71" y1="2170.28" x2="773.24" y2="2149.07" gradientTransform="translate(-498.97 2274.66) scale(1 -1)" gradientUnits="userSpaceOnUse"><stop offset="0" stop-color="#000"></stop><stop offset=".13" stop-color="#000" stop-opacity=".69"></stop><stop offset="1" stop-color="#000" stop-opacity="0"></stop></linearGradient><linearGradient id="linear-gradient-2-fitness-2-54" x1="698.59" y1="1995.39" x2="800.79" y2="1995.39" xlink:href="#linear-gradient-fitness-2-54"></linearGradient></defs><g id="background_fitness-2-54"><path class="cls-2_fitness-2-54 targetColor" d="M371.39,431.2c33.12-9.33,67.44-25.22,83.5-55.67,13.74-26.02,11.14-58.34-.59-85.32-4.99-11.46-11.58-22.46-14.19-34.72-2.78-13.02-.86-26.54,1.06-39.71l7.64-52.3c1.38-9.46,2.76-19.12,1.02-28.52-1.78-9.64-6.76-18.42-12.62-26.28-28.73-38.56-77.61-56.65-125.09-64.29-37.66-6.06-76.74-6.74-113.48,3.53-36.74,10.27-71.03,32.29-91.38,64.57-8.27,13.1-14.09,27.63-21.04,41.51-8.07,16.13-17.67,31.46-25.8,47.56-14.14,27.98-23.81,58.56-25.12,89.88-1.24,29.87,7,54.85,18.44,81.86,9.44,22.31,35.85,31.3,57.07,40.4,52.42,22.34,109.03,33.14,165.99,31.66,32-.78,63.78-5.54,94.6-14.17Z" style="fill: rgb(104, 225, 253);"></path><ellipse class="cls-2_fitness-2-54 targetColor" cx="259.12" cy="390.3" rx="143.24" ry="17.03" style="fill: rgb(104, 225, 253);"></ellipse></g><g id="character_fitness-2-54"><path class="cls-4_fitness-2-54" d="M264.12,97.46c1.58,1.95,2.11,4.54,2.3,7.03.29,3.77-.09,7.59.47,11.33.56,3.74,2.31,7.59,5.64,9.37-2.03,1.65-5.02,1.34-6.67-.69,0,0-.01-.02-.02-.03l-.13,2.38c-1.79-.75-3.33-2.01-4.41-3.63,0,.95-1.28,1.47-2.16,1.13-.85-.44-1.52-1.17-1.87-2.05-2.01-3.91-2.69-8.35-3.35-12.7l-1.07-7.06c-.28-1.82-.54-3.75.23-5.42,1.73-3.74,8.91-2.28,11.05.33Z"></path><path class="cls-1_fitness-2-54" d="M264.12,97.46c1.58,1.95,2.11,4.54,2.3,7.03.29,3.77-.09,7.59.47,11.33.56,3.74,2.31,7.59,5.64,9.37-2.03,1.65-5.02,1.34-6.67-.69,0,0-.01-.02-.02-.03l-.13,2.38c-1.79-.75-3.33-2.01-4.41-3.63,0,.95-1.28,1.47-2.16,1.13-.85-.44-1.52-1.17-1.87-2.05-2.01-3.91-2.69-8.35-3.35-12.7l-1.07-7.06c-.28-1.82-.54-3.75.23-5.42,1.73-3.74,8.91-2.28,11.05.33Z"></path><path class="cls-7_fitness-2-54 targetColor" d="M195.56,373.78c-1.61,2.68-3.53,5.15-5.73,7.37-1.41,1.25-2.64,2.68-3.66,4.26-.9,1.64-1.16,3.81-.07,5.35,1.43,2.03,4.38,2.09,6.86,1.88,4.44-.37,9.46-1.23,11.88-4.97,1.11-1.69,1.51-3.78,2.77-5.35.9-1.12,2.19-1.92,3.01-3.09,1.73-2.46,1.01-5.84.18-8.73-.18-1.06-.72-2.02-1.54-2.72-.77-.41-1.65-.59-2.51-.49-2.33.06-5.21,0-7.2,1.31-1.83,1.22-2.88,3.36-3.98,5.2Z" style="fill: rgb(104, 225, 253);"></path><path class="cls-7_fitness-2-54 targetColor" d="M309.25,369.49c1.61,2.67,3.54,5.15,5.73,7.37,1.41,1.25,2.64,2.68,3.66,4.26.9,1.64,1.16,3.81.08,5.34-1.44,2.04-4.39,2.09-6.87,1.88-4.44-.36-9.46-1.23-11.88-4.96-1.1-1.69-1.51-3.78-2.77-5.35-.9-1.13-2.19-1.92-3.01-3.1-1.73-2.46-1.01-5.83-.18-8.73.18-1.06.72-2.02,1.54-2.73.77-.41,1.65-.58,2.51-.48,2.33.05,5.21,0,7.2,1.3,1.83,1.21,2.88,3.36,3.98,5.2Z" style="fill: rgb(104, 225, 253);"></path><path class="cls-6_fitness-2-54" d="M294.92,365c.62,1.31,1.43,2.67,2.77,3.23,1.26.38,2.61.38,3.87,0,.69-.09,1.33-.38,1.87-.82.5-.61.77-1.38.76-2.18.41-4.92-.82-9.83-3.51-13.97-1.39.91-2.78,1.84-4.09,2.81-.92.65-3.42,1.88-3.89,2.91-.87,1.87,1.42,6.29,2.23,8.01Z"></path><path class="cls-6_fitness-2-54" d="M199.29,366.23c-.24,1.87-.45,3.9.52,5.51,1.29,1.94,3.88,2.52,5.87,1.32.67-.48,1.25-1.09,1.69-1.79,1.41-2.25,2.26-4.81,2.46-7.46.18-2.64.15-5.29-.1-7.92,0-.52-7.43,2.75-8.02,3.14-2.44,1.6-2.05,4.45-2.41,7.2Z"></path><path class="cls-4_fitness-2-54" d="M218.59,241.63c-.58,18.36-.47,36.91-4.26,54.85-4.73,22.36-15.55,43.76-14.65,66.65,2.11,2.23,5.85,1.64,8.11-.42,2.26-2.05,3.41-5.12,4.48-8.06,5.12-14.15,10.26-28.32,14.5-42.79,4.78-16.31,8.42-32.99,13.97-49.01,3.19-9.23,7.04-18.33,8.28-28.06,1.47.35,3.02.01,4.22-.91,1.86,18.38,14.56,33.64,18.36,51.69,1.35,6.43,1.53,13.1,2.28,19.61,2.28,19.99,9.82,39.02,19.98,56.06,2.91.91,5.99-1.47,7.13-4.44,1.14-2.96.86-6.3.55-9.48-1.03-10.64-2.07-21.38-4.91-31.65-2.57-9.23-6.55-18.05-8.07-27.55-1.04-6.63-.82-13.4-.72-20.13.34-25.89-2.12-53.53-17.13-73.99-7.78,1.99-15.73,3.21-23.74,3.65-6.62.36-13.84-2.13-18.4,3.36-8.77,10.55-9.55,27.33-9.99,40.64Z"></path><path class="cls-3_fitness-2-54" d="M218.59,241.63c-.58,18.36-.47,36.91-4.26,54.85-4.73,22.36-15.55,43.76-14.65,66.65,2.11,2.23,5.85,1.64,8.11-.42,2.26-2.05,3.41-5.12,4.48-8.06,5.12-14.15,10.26-28.32,14.5-42.79,4.78-16.31,8.42-32.99,13.97-49.01,3.19-9.23,7.04-18.33,8.28-28.06,1.47.35,3.02.01,4.22-.91,1.86,18.38,14.56,33.64,18.36,51.69,1.35,6.43,1.53,13.1,2.28,19.61,2.28,19.99,9.82,39.02,19.98,56.06,2.91.91,5.99-1.47,7.13-4.44,1.14-2.96.86-6.3.55-9.48-1.03-10.64-2.07-21.38-4.91-31.65-2.57-9.23-6.55-18.05-8.07-27.55-1.04-6.63-.82-13.4-.72-20.13.34-25.89-2.12-53.53-17.13-73.99-7.78,1.99-15.73,3.21-23.74,3.65-6.62.36-13.84-2.13-18.4,3.36-8.77,10.55-9.55,27.33-9.99,40.64Z"></path><path class="cls-6_fitness-2-54" d="M231.17,196.84c4.18,5.87,11.67,8.89,18.83,8.64s14.08-3.47,19.65-8.01c.79-.53,1.41-1.28,1.77-2.16.19-1.01.13-2.06-.18-3.05-1.24-6.69,2.73-13.28,2.83-20.08.07-.97-.12-1.93-.54-2.81-.64-.94-1.53-1.68-2.57-2.14-6.36-3.49-13.62-5.64-20.86-5.09-5.21.38-16.71,3.64-18.17,9.78-.74,3.1,1.49,8.55,1.45,11.98-.03,4.41-.77,8.78-2.2,12.94Z"></path><polygon class="cls-7_fitness-2-54 targetColor" points="300.54 95.69 283.4 105.69 286.28 110.28 303.23 100.31 300.54 95.69" style="fill: rgb(104, 225, 253);"></polygon><path class="cls-6_fitness-2-54" d="M274.4,126.89c3.02-.11,5.99.8,8.42,2.6,2.41,1.79,4.61,3.85,6.55,6.13,2.09-.94,4.49-.62,6.75-.23,5.75,1.02,11.43,2.44,16.99,4.25-2.36-10.26-6.96-19.86-13.47-28.14-.16-.23-.36-.42-.6-.56-.37-.14-.77-.14-1.14,0-2.11.61-4.25,2.09-6.3,1.31-.63-.28-1.21-.67-1.69-1.15-2.61-2.41-4.61-5.42-5.83-8.76,2.29.82,3.15,3.95,5.48,4.64,1.64.48,3.33-.43,4.67-1.49s2.63-2.31,4.3-2.65c2.04-.43,4.15.69,5.53,2.24,1.29,1.64,2.34,3.46,3.13,5.39,5.14,10.64,13.46,19.38,19.14,29.72,1.47,2.69,2.79,5.53,3.08,8.58.11.65.03,1.33-.21,1.94-.31.55-.77,1.01-1.32,1.32-2.13,1.22-4.52,1.94-6.97,2.1-4.02.35-8.06.42-12.09.2-5.36-.16-10.9-.38-15.7-2.77-3.05-1.52-6.12-3.97-9.46-3.27-.82.16-5.23,7.29-6.02,7.55-2.2.74-2.58-2.67-4.91-2.83-2.6-.19-3.59-3.99-5.77-5.42-2.22-1.58-3.89-3.82-4.76-6.41-.83-2.02-1.34-4.16-1.51-6.34-.07-2.2,1.64-2.24,3.49-3.33,3.23-1.9,6.4-4.33,10.25-4.63Z"></path><rect class="cls-7_fitness-2-54 targetColor" x="301.54" y="87.62" width="9.45" height="18.55" rx="2.76" ry="2.76" transform="translate(-5.82 172.99) rotate(-31.26)" style="fill: rgb(104, 225, 253);"></rect><rect class="cls-7_fitness-2-54 targetColor" x="277.27" y="101.26" width="9.45" height="18.55" rx="2.76" ry="2.76" transform="translate(-16.42 162.38) rotate(-31.26)" style="fill: rgb(104, 225, 253);"></rect><path class="cls-6_fitness-2-54" d="M298.45,97.55c.81.72,1.46,1.6,1.94,2.57.15.25.26.53.3.82.05.29-.07.58-.29.77-.44.29-1.02-.07-1.4-.44-.72-.7-1.38-1.46-1.96-2.27.64.89,1.17,1.85,1.59,2.86.16.31.16.67,0,.97-.11.13-.26.22-.43.26-.47.06-.94-.08-1.31-.38-.84-.6-1.6-1.3-2.27-2.09.54.86.98,1.77,1.32,2.73.12.26.16.54.12.82-.16.47-.62.78-1.11.74-.49-.05-.95-.24-1.33-.55-.78-.54-1.47-1.21-2.03-1.98.32.82.93,1.41,1.2,2.2.25.67.18,1.42-.2,2.02-.4.6-1.14.88-1.83.67-.37-.16-.7-.4-.97-.7l-1.64-1.54c-.32-.38-.75-.64-1.24-.75h-.5c-.37-.13-.68-.4-.87-.75-.24-.28-.38-.62-.4-.98.03-.27.15-.52.33-.73,1.15-1.51,3.1-2.07,4.72-3.05.58-.39,1.17-.74,1.78-1.06.57-.21,1.16-.33,1.77-.35.56-.06.93-.43,1.46-.61,1.15-.3,2.37,0,3.26.79Z"></path><polygon class="cls-7_fitness-2-54 targetColor" points="181.69 123.38 201.45 121.49 201.79 126.9 182.2 128.7 181.69 123.38" style="fill: rgb(104, 225, 253);"></polygon><path class="cls-6_fitness-2-54" d="M221.13,133.45c-2.52,1.67-4.39,4.15-5.31,7.02-.9,2.86-1.48,5.81-1.72,8.79-2.24.46-4.02,2.12-5.62,3.76-4.08,4.19-7.86,8.65-11.31,13.37-4.08-9.7-5.96-20.17-5.53-30.68-.01-.28.04-.56.16-.82.23-.32.56-.55.94-.65,2.06-.73,4.66-.78,5.87-2.61.35-.59.59-1.24.7-1.92.73-3.5.61-7.12-.37-10.55-1.39,2-.25,5.05-1.74,6.97-1.04,1.34-2.96,1.59-4.67,1.51s-3.48-.34-5.03.35c-1.91.82-2.97,2.98-3.18,5.05-.08,2.09.13,4.17.61,6.21,2.02,11.62.39,23.59,1.81,35.3.37,3.05.97,6.12,2.5,8.77.3.59.75,1.1,1.31,1.45.57.26,1.21.36,1.83.29,2.45-.25,4.8-1.06,6.88-2.37,3.47-2.06,6.79-4.37,9.94-6.89,4.26-3.27,8.64-6.67,11.14-11.41,1.59-3.02,2.64-6.79,5.73-8.19.77-.3,1.56-.55,2.36-.75,2.2-.77,4.22-1.97,5.96-3.52,2.09-1.58,3.75-3.65,4.82-6.04.88-2.58.93-5.38.13-7.99-.5-2.12-1.33-4.16-2.46-6.03-1.23-1.83-2.63-.88-4.77-.67-3.72.36-7.7.24-11,2.24Z"></path><path class="cls-5_fitness-2-54" d="M243.26,123.63c-.05,1.64-.07,3.41.77,4.82,1.35,2.3,4.41,2.88,7.08,2.82,1.22.02,2.43-.19,3.58-.62,1.15-.43,2.07-1.32,2.54-2.46.23-.85.3-1.74.2-2.61l-.33-6.34c.01-1.54-.24-3.07-.75-4.52-.09-.28-.26-.52-.5-.69-.25-.12-.54-.17-.82-.14-2.91.09-5.8.33-8.69.72-1.89.25-2.91.69-2.93,2.56-.06,2.13-.09,4.29-.16,6.44Z"></path><path class="cls-6_fitness-2-54" d="M239.7,114.36c2.63,3.49,7.02,6.21,11.25,5.12,3.15-.82,5.45-3.56,6.99-6.43,3.66-6.9,4.18-15.05,1.42-22.36-.71-2.09-1.92-3.99-3.51-5.53-3.21-2.87-8.02-3.18-12.22-2.23-2.83.65-5.93,2.27-7.52,4.82-1.23,1.96-1.08,4.6-1.2,6.83-.37,6.87.54,14.13,4.8,19.77Z"></path><path class="cls-7_fitness-2-54 targetColor" d="M237.84,129.6c-.65.29-1.41.61-1.64,1.29-.11.37-.13.76-.07,1.15.57,6.96-1.36,13.89-5.45,19.54-.86,1.07-1.65,2.2-2.35,3.38-1.17,2.4-1.57,5.09-1.16,7.73.41,2.62,1.09,5.18,2.02,7.66.15.55.4,1.06.74,1.51,1.24,1.43,3.54.72,5.3,0,7.34-3.06,15.43-3.89,23.24-2.41,4.84,1,9.5,3,14.42,3.27.6.08,1.21-.01,1.75-.28.66-.54,1.08-1.32,1.17-2.16l2.74-11.34c.24-.8.34-1.63.3-2.46-.22-1.99-1.97-3.38-3.36-4.82-4.04-4.2-5.56-10.14-6.93-15.8-.53-1.9-.86-3.86-.99-5.83.04-.54-.05-1.08-.27-1.57-.26-.38-.61-.68-1.02-.88-2.58-1.47-5.73-2.05-7.75-4.24-.44-.64-1.02-1.17-1.71-1.54-.44-.13-.89-.17-1.34-.11-2.08.1-4.15.27-6.21.5-1.34.16-4.73,0-5.73.94-.82.82-1.06,2.74-1.91,3.74-1.05,1.18-2.35,2.11-3.8,2.73Z" style="fill: rgb(104, 225, 253);"></path><rect class="cls-7_fitness-2-54 targetColor" x="173.01" y="118.41" width="9.45" height="18.55" rx="2.76" ry="2.76" transform="translate(-9.39 14.21) rotate(-4.46)" style="fill: rgb(104, 225, 253);"></rect><rect class="cls-7_fitness-2-54 targetColor" x="200.66" y="115.32" width="9.45" height="18.55" rx="2.76" ry="2.76" transform="translate(-9.07 16.35) rotate(-4.46)" style="fill: rgb(104, 225, 253);"></rect><path class="cls-6_fitness-2-54" d="M184.48,123.66c-.23,1.06-.26,2.16-.07,3.23.02.28.09.56.22.82.13.27.4.44.7.45.52,0,.78-.65.88-1.17.18-.99.27-1.99.27-2.99,0,1.1.12,2.2.38,3.27.04.35.25.66.56.82.16.06.34.06.5,0,.41-.24.7-.62.82-1.08.32-.98.53-1.99.61-3.02.06,1.01.24,2.01.52,2.99.06.28.19.54.39.75.4.29.95.27,1.33-.05.36-.32.63-.74.76-1.21.32-.9.48-1.85.49-2.8.19.82.07,1.69.31,2.5.19.69.69,1.24,1.34,1.51.68.26,1.45.05,1.89-.52.2-.35.33-.73.38-1.13l.41-2.19c.04-.49.24-.96.56-1.33.14-.1.26-.2.38-.32.22-.33.32-.72.26-1.11.03-.36-.06-.72-.25-1.03-.19-.2-.43-.34-.7-.4-1.8-.55-3.72.13-5.61.29-.69.02-1.38.08-2.07.18-.58.15-1.14.4-1.64.74-.5.18-1.01.29-1.54.35-1.07.43-1.86,1.35-2.12,2.46Z"></path><path class="cls-4_fitness-2-54" d="M233.32,91.8c.88-4.3,3.72-7.93,7.68-9.82,2.1-.86,4.36-1.31,6.63-1.32,2.29-.21,4.59.24,6.65,1.28,1.97,1.15,3.27,3.13,4.42,5.12,2.09,3.72,3.64,8.26,2.02,12.21-.58-2.77-1.18-5.6-2.67-8.01-3.62-5.74-11.2-7.46-16.94-3.84-2.93,1.85-4.94,4.84-5.54,8.25-.39,2.32-.09,4.71-.35,7.01-2.83-1.56-2.57-8.13-1.9-10.88Z"></path><path class="cls-6_fitness-2-54" d="M233.32,101.8c-.15-.03-.31-.03-.46,0-.43.11-.61.61-.65,1.04.18,2,1.08,3.86,2.54,5.24.43.38.98.59,1.55.61.3.02.58-.1.77-.34.07-.15.11-.3.12-.47.03-1.44-.35-2.86-1.09-4.09-.19-.54-.55-1.01-1.02-1.35-.54-.33-1.14-.55-1.77-.64Z"></path><path class="cls-6_fitness-2-54" d="M261.58,96.98c.41-.21.88-.23,1.31-.07.61.36.96,1.04.89,1.75.07,1.84-.24,3.68-.91,5.39-.09.32-.3.59-.59.74-.53.2-1.09-.25-1.4-.68-1.37-1.9-2.1-5.78.7-7.14Z"></path></g></svg>